<svg xmlns="http://www.w3.org/2000/svg" viewBox="0 0 104.94 39.69"><defs><style>.cls-1{fill:#fff;}</style></defs><g id="Layer_1" data-name="Layer 1"><path class="cls-1" d="M39.77,18.49a3.53,3.53,0,0,0,1.57-1,3.37,3.37,0,0,0,.79-1.77,1.82,1.82,0,0,0-.06-.94,2,2,0,0,0-.44-.67,1.62,1.62,0,0,0-.56-.34,3.9,3.9,0,0,0,.8-.39,3.21,3.21,0,0,0,.77-.71,2.44,2.44,0,0,0,.45-1.09,2.11,2.11,0,0,0-.08-1,1.49,1.49,0,0,0-.7-.84,3.13,3.13,0,0,0-1.56-.32H37.52l-3.41,9.35h3.47A7.59,7.59,0,0,0,39.77,18.49Zm-.86-7.42H40a1.3,1.3,0,0,1,.79.19.69.69,0,0,1,.17.68,1.46,1.46,0,0,1-.34.74,1.5,1.5,0,0,1-.61.38,2.57,2.57,0,0,1-.72.11H38.15Zm-1.32,3.64h1.46a1.1,1.1,0,0,1,.85.26.91.91,0,0,1,.14.78A1.55,1.55,0,0,1,39,17a2.82,2.82,0,0,1-.83.12H36.7Z"/><path class="cls-1" d="M44.68,18.63a2.68,2.68,0,0,0,1.43.38,4.41,4.41,0,0,0,2.15-.55,4.94,4.94,0,0,0,2.5-3.55,2.68,2.68,0,0,0-.14-1.51,2.18,2.18,0,0,0-.88-1A2.66,2.66,0,0,0,48.3,12a4.11,4.11,0,0,0-1.57.31,5.07,5.07,0,0,0-1.42.87,5.2,5.2,0,0,0-1.08,1.3,4.88,4.88,0,0,0-.59,1.61,2.68,2.68,0,0,0,.15,1.51A2.18,2.18,0,0,0,44.68,18.63Zm.92-2.82a2.74,2.74,0,0,1,.44-1.1,2.84,2.84,0,0,1,.8-.75,1.74,1.74,0,0,1,.91-.27,1,1,0,0,1,.9.41,1.55,1.55,0,0,1,.14,1.08,2.89,2.89,0,0,1-.45,1.11,2.79,2.79,0,0,1-.8.74,1.8,1.8,0,0,1-.91.27,1,1,0,0,1-.89-.42A1.53,1.53,0,0,1,45.6,15.81Z"/><path class="cls-1" d="M54.4,15.39a3.22,3.22,0,0,1,.71-1.14,1.5,1.5,0,0,1,1.12-.49.65.65,0,0,1,.61.26,1.05,1.05,0,0,1,.07.68,1.9,1.9,0,0,1-.11.39l-1.34,3.69h2l1.47-4a2.07,2.07,0,0,0,.1-.33,2.29,2.29,0,0,0,.07-.34,1.84,1.84,0,0,0-.24-1.47,1.51,1.51,0,0,0-1.33-.55,3.48,3.48,0,0,0-1.13.18,3.33,3.33,0,0,0-1.06.62l1.26-3.42H54.64l-3.42,9.35h1.94Z"/><path class="cls-1" d="M61.41,18.69a3.46,3.46,0,0,0,1.51.32,5.12,5.12,0,0,0,1.58-.24,6.6,6.6,0,0,0,1.4-.65l-.56-1.27a5.78,5.78,0,0,1-.91.43,2.93,2.93,0,0,1-1,.17,1.37,1.37,0,0,1-1-.38,1.07,1.07,0,0,1-.26-1h4.39a5.23,5.23,0,0,0,.24-.65,6.57,6.57,0,0,0,.16-.67,3,3,0,0,0-.07-1.35,1.9,1.9,0,0,0-.72-1A2.43,2.43,0,0,0,64.7,12a4.11,4.11,0,0,0-2,.51,4.62,4.62,0,0,0-1.59,1.43,5.15,5.15,0,0,0-.84,2.13,2.64,2.64,0,0,0,.15,1.67A2.05,2.05,0,0,0,61.41,18.69Zm1.85-4.85a1.81,1.81,0,0,1,1-.32,1,1,0,0,1,.75.28.87.87,0,0,1,.17.76l0,.11a.58.58,0,0,1-.05.16H62.49A2.27,2.27,0,0,1,63.26,13.84Z"/><path class="cls-1" d="M70.67,15.39a3.22,3.22,0,0,1,.71-1.14,1.49,1.49,0,0,1,1.12-.49.59.59,0,0,1,.56.26,1,1,0,0,1,.08.68,1.9,1.9,0,0,1-.11.39l-1.35,3.69h1.93l1.24-3.39a3.22,3.22,0,0,1,.71-1.14,1.5,1.5,0,0,1,1.12-.49.58.58,0,0,1,.56.26,1,1,0,0,1,.08.68,1.9,1.9,0,0,1-.11.39l-1.34,3.69h2l1.47-4c0-.11.07-.22.1-.33s0-.23.07-.34a1.67,1.67,0,0,0-.32-1.47,1.73,1.73,0,0,0-1.41-.55,3.83,3.83,0,0,0-1.33.21,4.07,4.07,0,0,0-1.17.7,1.37,1.37,0,0,0-1.39-.91,3.9,3.9,0,0,0-1.15.17,3.56,3.56,0,0,0-1.14.71l.2-.73H69.89l-2.4,6.58h1.94Z"/><polygon class="cls-1" points="85.36 9.44 83.26 9.44 82.6 11.22 84.7 11.22 85.36 9.44"/><polygon class="cls-1" points="84.28 12.2 82.33 12.2 79.92 18.78 81.88 18.78 84.28 12.2"/><path class="cls-1" d="M89.36,14.38a.56.56,0,0,1,0,.12l0,.14-.61-.06-.61,0a4.35,4.35,0,0,0-2.52.69,2.72,2.72,0,0,0-1.18,1.83,1.54,1.54,0,0,0,.32,1.4,1.68,1.68,0,0,0,1.26.5A3,3,0,0,0,87,18.79a3.1,3.1,0,0,0,1-.63l-.17.62h1.81L91,15a3.72,3.72,0,0,0,.18-.69,1.84,1.84,0,0,0-.39-1.71A2.42,2.42,0,0,0,89,12a5.54,5.54,0,0,0-1.78.27,6.34,6.34,0,0,0-1.32.58l.5,1.21a6.6,6.6,0,0,1,.85-.37,3,3,0,0,1,1.06-.16,1.83,1.83,0,0,1,.81.16.5.5,0,0,1,.26.6Zm-.73,2a1.57,1.57,0,0,1-.73.89,2,2,0,0,1-.94.26.74.74,0,0,1-.55-.19.59.59,0,0,1-.12-.54,1.07,1.07,0,0,1,.5-.71A2.12,2.12,0,0,1,88,15.81a3.48,3.48,0,0,1,.49,0l.34.05Z"/><polygon class="cls-1" points="31.96 24.72 28.54 34.08 30.59 34.08 34.01 24.72 31.96 24.72"/><path class="cls-1" d="M39.24,27.34a3.28,3.28,0,0,0-1.16.2,3.58,3.58,0,0,0-1.06.67l.21-.71H35.36L33,34.08H34.9l1.24-3.4a3,3,0,0,1,.71-1.13A1.49,1.49,0,0,1,38,29.06a.66.66,0,0,1,.6.25,1,1,0,0,1,.08.67,2.28,2.28,0,0,1-.11.41l-1.35,3.69h2l1.48-4c0-.11.07-.23.1-.34a3.4,3.4,0,0,0,.07-.34,1.94,1.94,0,0,0-.24-1.47A1.54,1.54,0,0,0,39.24,27.34Z"/><path class="cls-1" d="M46.66,25.37h-2l-.76,2.13h-1l-.56,1.56h1l-.94,2.54c-.05.14-.1.29-.14.43a2.22,2.22,0,0,0-.1.41c-.21,1.25.4,1.88,1.85,1.88a4,4,0,0,0,2.31-.78l-.58-1.22a2.62,2.62,0,0,1-.5.28,1.28,1.28,0,0,1-.5.09.5.5,0,0,1-.43-.17.59.59,0,0,1-.08-.45,1.65,1.65,0,0,1,.11-.36l1-2.65H47l.56-1.56H45.89Z"/><path class="cls-1" d="M53.83,27.67a2.48,2.48,0,0,0-1.48-.4,4.12,4.12,0,0,0-2,.52,4.49,4.49,0,0,0-1.58,1.43,5,5,0,0,0-.85,2.12A2.67,2.67,0,0,0,48.07,33a2.07,2.07,0,0,0,1,1,3.45,3.45,0,0,0,1.51.31,5.12,5.12,0,0,0,1.58-.24,6.87,6.87,0,0,0,1.41-.64L53,32.14a5.44,5.44,0,0,1-.91.44,2.93,2.93,0,0,1-1,.17,1.33,1.33,0,0,1-1-.38,1.07,1.07,0,0,1-.27-1h4.39a4.7,4.7,0,0,0,.24-.65,4.54,4.54,0,0,0,.16-.66,3.09,3.09,0,0,0-.06-1.36A2,2,0,0,0,53.83,27.67Zm-1,2.19,0,.11a.33.33,0,0,1,0,.15H50.14a2.27,2.27,0,0,1,.77-1,1.83,1.83,0,0,1,1-.31.92.92,0,0,1,.74.28A.84.84,0,0,1,52.85,29.86Z"/><path class="cls-1" d="M61.67,27.41a2.87,2.87,0,0,0-.44,0,2.27,2.27,0,0,0-1.12.28,4.17,4.17,0,0,0-.94.68l.24-.83H57.54l-2.4,6.58h2L58.21,31a3.17,3.17,0,0,1,.88-1.33,1.94,1.94,0,0,1,1.33-.53,2,2,0,0,1,.36,0,1.09,1.09,0,0,1,.36.1l.92-1.75Z"/><path class="cls-1" d="M66.16,27.27a5.5,5.5,0,0,0-1.78.27,6.89,6.89,0,0,0-1.32.59l.49,1.21A6.42,6.42,0,0,1,64.4,29a3.12,3.12,0,0,1,1.07-.17,1.78,1.78,0,0,1,.8.17.49.49,0,0,1,.27.59l0,.11s0,.08,0,.13l-.06.14-.6-.06a5.73,5.73,0,0,0-.62,0,4.32,4.32,0,0,0-2.51.69,2.73,2.73,0,0,0-1.19,1.83,1.55,1.55,0,0,0,.33,1.4,1.65,1.65,0,0,0,1.25.49,3,3,0,0,0,2.07-.81l-.18.62h1.82l1.39-3.82a3.61,3.61,0,0,0,.19-.69A1.86,1.86,0,0,0,68,27.86,2.46,2.46,0,0,0,66.16,27.27Zm-.38,4.41a1.52,1.52,0,0,1-.74.88,2,2,0,0,1-.93.27.72.72,0,0,1-.55-.19.6.6,0,0,1-.12-.54,1.09,1.09,0,0,1,.5-.72,2.2,2.2,0,0,1,1.19-.28,3.58,3.58,0,0,1,.49,0l.34.06Z"/><path class="cls-1" d="M72,30a2.55,2.55,0,0,1,.79-.75A1.67,1.67,0,0,1,73.7,29a1.05,1.05,0,0,1,.69.2,1.44,1.44,0,0,1,.37.6l1.69-.8a2.18,2.18,0,0,0-.73-1.28,2.37,2.37,0,0,0-1.55-.46,4.15,4.15,0,0,0-2.13.57,5.14,5.14,0,0,0-2.5,3.59,2.67,2.67,0,0,0,.12,1.48,2.12,2.12,0,0,0,.85,1A2.67,2.67,0,0,0,72,34.3,4.16,4.16,0,0,0,73.68,34,6.6,6.6,0,0,0,75,33.15l-.84-1.26a3.61,3.61,0,0,1-.74.48,1.86,1.86,0,0,1-.85.19,1,1,0,0,1-.81-.35,1.15,1.15,0,0,1-.2-1A2.66,2.66,0,0,1,72,30Z"/><path class="cls-1" d="M79.6,31.71l1-2.65h1.66l.56-1.56H81.13l.77-2.13h-2l-.76,2.13h-1l-.56,1.56h1l-.94,2.54c-.06.14-.1.29-.15.43a3.38,3.38,0,0,0-.09.41c-.21,1.25.4,1.88,1.85,1.88a4,4,0,0,0,2.31-.78L81,32.32a2.31,2.31,0,0,1-.49.28,1.31,1.31,0,0,1-.5.09.5.5,0,0,1-.43-.17.59.59,0,0,1-.08-.45A1.65,1.65,0,0,1,79.6,31.71Z"/><polygon class="cls-1" points="85.38 26.52 87.48 26.52 88.14 24.74 86.04 24.74 85.38 26.52"/><polygon class="cls-1" points="82.7 34.08 84.66 34.08 87.06 27.5 85.1 27.5 82.7 34.08"/><polygon class="cls-1" points="93.37 27.5 90.39 31.89 90.46 27.5 88.35 27.5 88.67 34.08 90.45 34.08 95.56 27.5 93.37 27.5"/><path class="cls-1" d="M101.1,27.67a2.48,2.48,0,0,0-1.48-.4,4.15,4.15,0,0,0-2,.52A4.49,4.49,0,0,0,96,29.22a5.18,5.18,0,0,0-.85,2.12A2.67,2.67,0,0,0,95.34,33a2.12,2.12,0,0,0,1,1,3.45,3.45,0,0,0,1.51.31,5.08,5.08,0,0,0,1.58-.24,6.87,6.87,0,0,0,1.41-.64l-.57-1.28a5.44,5.44,0,0,1-.91.44,2.93,2.93,0,0,1-1,.17,1.33,1.33,0,0,1-1-.38,1.07,1.07,0,0,1-.27-1h4.4a6.35,6.35,0,0,0,.23-.65,4.54,4.54,0,0,0,.16-.66,3.09,3.09,0,0,0-.06-1.36A2,2,0,0,0,101.1,27.67Zm-1,2.19,0,.11a.33.33,0,0,1,0,.15H97.41a2.27,2.27,0,0,1,.77-1,1.83,1.83,0,0,1,1-.31.92.92,0,0,1,.74.28A.84.84,0,0,1,100.12,29.86Z"/><path class="cls-1" d="M28.89,21.22,29,21c1.13-3.69.68-7.11-1.28-9.62A9.4,9.4,0,0,0,21.86,8l3.19-8H22.6s-1.15,3.74-2.53,7.82a13.68,13.68,0,0,0-1.43,0A20.14,20.14,0,0,0,7.5,12.26,18.71,18.71,0,0,0,1.73,19h2a17.2,17.2,0,0,1,4.68-5.58A18.65,18.65,0,0,1,18.72,9.3h.84c-.16.47-.32.93-.49,1.39-.63,1.77-2.13,5.92-3.8,10.54H9.73l-2.5,3.52a37.46,37.46,0,0,1,7.28-1.44c-1.32,3.63-2.67,7.37-3.76,10.36-3.36.19-6.38-.8-8.25-2.93A7,7,0,0,1,.81,27.5L0,26.74a8.67,8.67,0,0,0,1.76,4.88A10.19,10.19,0,0,0,10,35.21h.15L8.56,39.69l1-.77,1.49-3.75a20.27,20.27,0,0,0,10.84-4.4,20.75,20.75,0,0,0,6.55-8.4c1.33,0,2.73,0,4.22,0h71.77l.47-1.11ZM21.3,9.43a8,8,0,0,1,5.2,2.89c1.66,2.13,2,5.07,1,8.29-.06.2-.13.41-.2.61H16.63ZM21,29.61a19,19,0,0,1-9.31,4l4.14-10.43c2.83-.32,6.46-.6,11-.73A19.63,19.63,0,0,1,21,29.61Z"/></g></svg>